<?xml version="1.0"?>
<svg width="4000" height="4000" xmlns="http://www.w3.org/2000/svg" xmlns:svg="http://www.w3.org/2000/svg" enable-background="new 0 0 4000 4000" version="1.1" xml:space="preserve">
 <g class="layer">
  <title>Layer 1</title>
  <ellipse cx="2018" cy="3484.5" fill="#4C136D" id="svg_4" opacity="0.2" rx="798.44" ry="77.5"/>
  <g id="svg_5">
   <g id="svg_6">
    <path d="m3184.72,1362.28c-13.09,24.79 -40.58,38.46 -68.34,34.58l-250.12,-34.98l-155.77,1114.02c-38.17,316.95 -135.19,465.83 -353.55,441.38c-5.66,-0.56 -11.36,-1.3 -17.15,-2.16l-1532.06,-214.22c-247.79,-34.65 -169.84,-592.11 77.95,-557.47l235.1,32.88l66.29,-474.08l113.19,-42.17l-99.94,-52.59l14.31,-102.4l221.76,-51.28l-193.26,-152.53l52.11,-372.65c19.14,-109.54 64.68,-184.31 142.89,-216c33.75,-13.67 70.7,-17.03 106.76,-11.99l1543.83,215.87c166.79,55.28 182.76,281.55 96,445.79z" fill="#EFDECC" id="svg_7"/>
   </g>
   <g id="svg_8" opacity="0.3">
    <path d="m2847.17,1083.77l-207.78,1486.04c0,0 -52.76,397.48 -400.39,274.3c-347.63,-123.17 -514.11,-270.17 -514.11,-270.17l3.24,-238.06c534.7,98.15 879.06,-410.58 1119.04,-1252.11z" fill="#4C136D" id="svg_9"/>
   </g>
   <g id="svg_10">
    <path d="m2432.08,2628.36l-231.8,-32.42c-25.8,122.71 2.85,215.16 56.94,269.3c27.83,27.84 62.41,45.55 99.72,52.04c-5.66,-0.56 -11.36,-1.29 -17.15,-2.16l-1532.06,-214.22c-94.37,-13.2 -141.54,-102.26 -150,-205.58c-13.76,-167.85 74.53,-373.34 227.95,-351.89l1486.55,207.86c189.53,44.37 207,276.53 59.85,277.07z" fill="#E0CFBD" id="svg_11"/>
   </g>
   <g id="svg_12">
    <g id="svg_13">
     <g id="svg_14">
      <path d="m1835.7,1076.25l-15.59,-61.22c19.82,-5.05 40.06,-8.92 60.14,-11.51l8.08,62.66c-17.56,2.27 -35.27,5.65 -52.63,10.07z" fill="#4C136D" id="svg_15"/>
     </g>
    </g>
    <g id="svg_16">
     <g id="svg_17">
      <path d="m1998.07,1002.59l-7.14,62.74c34.13,3.9 67.63,11.95 99.59,23.95l22.24,-59.12c-36.8,-13.84 -75.46,-23.13 -114.69,-27.57zm219.19,82.44l-36.14,51.84c28.17,19.65 53.65,42.7 75.79,68.53l47.98,-41.14c-25.63,-29.91 -55.08,-56.53 -87.63,-79.23zm152.36,178.3l-56.89,27.36c14.68,30.59 25.44,63.18 31.87,96.84l62.03,-11.85c-7.42,-39.03 -19.88,-76.84 -37.01,-112.35zm-227.07,550.87c-29.76,13.36 -62.82,23.75 -98.39,30.9l12.45,61.95c40.16,-8.08 77.78,-19.93 111.87,-35.23l-25.93,-57.62zm-208.15,46.06c-40.89,8.78 -79.62,27.32 -111.98,53.48l39.7,49.16c24.72,-20.03 54.3,-34.16 85.57,-40.87l-13.29,-61.77zm-142.77,225.59c2.31,-16.55 6.83,-32.68 13.44,-48.05l-58.05,-24.94c-8.85,20.57 -14.88,42.17 -17.97,64.24c-1.65,11.84 -2.48,23.96 -2.42,35.97c0.03,7.72 0.4,15.43 1.02,23l62.93,-5.41c-0.46,-5.87 -0.73,-11.82 -0.76,-17.8c-0.01,-9.05 0.56,-18.13 1.81,-27.01z" fill="#4C136D" id="svg_18"/>
     </g>
    </g>
   </g>
   <g id="svg_19">
    <path d="m2401.62,2937.19c-20.36,0 -41.79,-1.68 -64.36,-5.03l-1531.92,-214.2c-139.41,-19.49 -181.46,-181.7 -161.54,-324.17c19.92,-142.46 104.83,-286.91 244.26,-267.42l218.04,30.48l63.9,-457c0.88,-6.27 5.12,-11.55 11.05,-13.76l77.09,-28.72l-65.85,-34.65c-6.43,-3.39 -10.04,-10.44 -9.04,-17.64l14.32,-102.39c0.99,-7.07 6.23,-12.79 13.18,-14.4l186.8,-43.21l-165.1,-130.29c-4.8,-3.8 -7.23,-9.85 -6.38,-15.92l52.1,-372.64c0.03,-0.2 0.06,-0.39 0.09,-0.58c20.83,-119.15 72.43,-196.2 153.39,-229.01c35.12,-14.23 75.1,-18.75 115.63,-13.08l1543.83,215.87c1.03,0.14 2.04,0.38 3.03,0.7c63.44,21.03 110.81,66.57 137.01,131.71c38.76,96.38 26.51,229.24 -31.19,338.48l0,0c-16.36,30.98 -50.91,48.49 -85.96,43.6l-233.06,-32.59l-153.38,1096.96c-25.62,212.83 -77.49,342.56 -163.2,407.97c-44.66,34.07 -98.29,50.93 -162.74,50.93zm-1538,-778.08c-104.41,0 -169.09,120.71 -185.69,239.45c-17.62,126.03 16.23,269.05 132.19,285.27l1532.05,214.22c84.52,12.56 150.31,-0.29 201.29,-39.19c77.81,-59.38 125.45,-181.72 149.93,-385.02l155.81,-1114.34c1.31,-9.43 10.06,-15.98 19.45,-14.68l250.12,34.97c20.74,2.9 41.11,-7.37 50.72,-25.56l0,0c53.17,-100.66 64.83,-222.16 29.69,-309.53c-22.09,-54.94 -61.64,-93.41 -114.42,-111.36l-1542.25,-215.65c-34.55,-4.84 -68.4,-1.06 -97.92,10.89c-70.11,28.41 -113.4,94.72 -132.33,202.71l-50.69,362.57l185.5,146.4c5.2,4.11 7.58,10.83 6.14,17.29c-1.45,6.47 -6.48,11.53 -12.94,13.02l-210.21,48.62l-11,78.67l89.22,46.96c6.01,3.16 9.6,9.56 9.17,16.35c-0.43,6.78 -4.81,12.67 -11.18,15.04l-103.56,38.59l-64.87,463.89c-1.31,9.43 -10.05,15.99 -19.45,14.68l-235.1,-32.87c-6.7,-0.94 -13.26,-1.39 -19.67,-1.39z" fill="#4C136D" id="svg_20"/>
   </g>
   <g id="svg_21">
    <path d="m2849.22,1359.51l15.36,-109.85l7.68,-54.93l3.84,-27.46c1.13,-8.98 2.82,-18.65 4.66,-28.17c7.56,-37.64 20.2,-75.26 42.26,-108.9c11.23,-16.64 24.89,-32.2 41.72,-44.63c16.8,-12.31 36.74,-21.58 58.15,-24.64c21.3,-3.4 43.53,-0.72 63.46,7.01c20.07,7.54 37.71,20.09 52.13,35.07c28.87,30.35 43.9,70.15 48.45,109.03c2.52,19.52 2.89,39.08 1.16,58.28c-1.53,19.21 -4.93,38.08 -9.66,56.45c-9.41,36.78 -24.4,71.48 -42.91,103.69c10.62,-35.62 19.55,-71.33 23.46,-107.3c2.01,-17.95 2.86,-35.88 2.42,-53.6c-0.55,-17.71 -2.54,-35.21 -6.22,-52.11c-7.46,-33.71 -21.83,-65.22 -43.62,-89.08c-11.01,-11.69 -23.8,-21.64 -38.26,-27.51c-14.39,-5.9 -30.04,-7.97 -45.29,-5.84c-15.29,2.14 -29.88,8.86 -42.82,18.29c-12.95,9.54 -24.07,22.06 -33.5,36.01c-18.58,28.28 -30.25,61.92 -37.14,96.56c-1.66,8.61 -3.18,17.14 -4.37,26.49l-3.84,27.41l-7.66,54.84l-15.34,109.66c-1.31,9.43 -10.02,16 -19.45,14.68s-15.99,-10.03 -14.67,-19.45z" fill="#4C136D" id="svg_22"/>
   </g>
   <g id="svg_23" opacity="0.3">
    <path d="m3135.52,1330.46l-259.79,-36.33l18.89,-135.09c52.39,-326.16 394.6,-181.17 240.9,171.42z" fill="#4C136D" id="svg_24"/>
   </g>
   <g id="svg_25">
    <g id="svg_26">
     <circle cx="2624.14" cy="1793.97" fill="#FFB200" id="svg_27" r="511.19"/>
    </g>
    <g id="svg_28">
     <rect fill="#4C136D" height="145.51" id="svg_29" transform="matrix(0.8713 -0.4907 0.4907 0.8713 -770.909 1714.58)" width="149.34" x="2839.11" y="2227.73"/>
    </g>
    <g id="svg_30">
     <path d="m3297.4,2885.41l-98.46,55.42c-33.62,18.96 -76.2,7.03 -95.17,-26.59l-48.4,-85.99l-198.67,-352.73c-18.97,-33.62 -7.03,-76.26 26.59,-95.22l98.46,-55.43c0.43,-0.23 1.81,-0.96 4.06,-2.1c32.89,-15.81 72.89,-3.61 91.1,28.69l247.07,438.78c18.97,33.62 7.04,76.21 -26.58,95.17z" fill="#FEB300" id="svg_31"/>
    </g>
    <g id="svg_32">
     <path d="m3019.49,1849.25c-18.05,129.07 -95.98,235.09 -201.8,293.83c-0.06,0.05 -0.06,0.05 -0.13,0.1c-73.12,40.58 -159.5,58.6 -248.7,46.13c-218.32,-30.53 -370.59,-232.3 -340.06,-450.62c30.53,-218.32 232.3,-370.59 450.62,-340.07c83.11,11.63 156.6,48.06 214.13,100.76c0,0 0,0 -0.01,0.06c93.63,85.7 144.85,214.6 125.95,349.81z" fill="#EFDECC" id="svg_33"/>
    </g>
    <g id="svg_34" opacity="0.3">
     <path d="m2868.39,1478.17l-95.99,686.48c-62.43,25.08 -132.09,34.65 -203.54,24.66c-63.76,-8.91 -121.89,-32.47 -171.5,-66.72c160.68,-157.38 294.76,-391.26 408.28,-684.28c22.3,11.41 43.29,24.73 62.75,39.86z" fill="#4C136D" id="svg_35"/>
    </g>
    <g id="svg_36">
     <path d="m3019.49,1849.25c-18.05,129.07 -95.98,235.09 -201.8,293.83c20.47,-16.56 24.59,-63.43 24.59,-63.43l67.81,-484.93c5.17,-52.35 -15.54,-93.35 -16.55,-95.28c93.63,85.7 144.85,214.6 125.95,349.81z" fill="#FBE291" id="svg_37"/>
    </g>
    <g id="svg_38" opacity="0.2">
     <path d="m3095.19,2652.16l-30.42,17.12c-10.38,5.86 -23.54,2.17 -29.4,-8.21l-14.95,-26.57l-61.38,-108.98c-5.86,-10.39 -2.18,-23.56 8.21,-29.42l30.42,-17.12c0.14,-0.07 0.56,-0.3 1.26,-0.65c10.16,-4.88 22.51,-1.11 28.14,8.86l76.34,135.57c5.85,10.38 2.17,23.54 -8.22,29.4z" fill="#FFFFFF" id="svg_39"/>
    </g>
    <g id="svg_40">
     <path d="m3297.4,2885.41l-98.46,55.42c-33.62,18.96 -76.2,7.03 -95.17,-26.59l-48.4,-85.99c65.08,44.6 180.43,-10.82 129.56,-158.05c-6.84,-19.83 -16.21,-38.7 -27.13,-56.61l-176.05,-288.71c0.43,-0.23 1.81,-0.97 4.06,-2.1c32.89,-15.82 72.89,-3.62 91.1,28.68l247.07,438.78c18.97,33.62 7.04,76.21 -26.58,95.17z" fill="#F28D01" id="svg_41"/>
    </g>
    <g id="svg_42">
     <path d="m3164.81,2967.11c-7.87,0 -15.79,-1.08 -23.58,-3.26c-22.41,-6.26 -41.04,-20.87 -52.46,-41.15l-247.09,-438.74c-23.57,-41.85 -8.69,-95.08 33.16,-118.65l98.42,-55.43c20.27,-11.42 43.78,-14.26 66.19,-8c22.41,6.26 41.04,20.88 52.46,41.15l247.09,438.74c23.57,41.85 8.7,95.08 -33.15,118.66l0,0l-98.43,55.43c-13.22,7.45 -27.83,11.25 -42.61,11.25zm-148.88,-634.01c-8.93,0 -17.76,2.3 -25.75,6.81l-98.43,55.43c-25.3,14.24 -34.28,46.41 -20.04,71.71l247.09,438.74c6.9,12.25 18.16,21.09 31.71,24.87c13.55,3.79 27.75,2.08 40,-4.83l98.43,-55.43c25.29,-14.25 34.28,-46.42 20.04,-71.72l-247.09,-438.74c-6.9,-12.25 -18.16,-21.08 -31.71,-24.87c-4.71,-1.31 -9.49,-1.97 -14.25,-1.97zm281.46,552.31l0.05,0l-0.05,0z" fill="#4C136D" id="svg_43"/>
    </g>
    <g id="svg_44" opacity="0.24">
     <path d="m3019.49,1849.25c-18.05,129.07 -95.98,235.09 -201.8,293.83c-0.06,0.05 -0.06,0.05 -0.13,0.1c-14.52,8.06 -29.62,15.29 -45.16,21.47c-62.43,25.08 -132.09,34.65 -203.54,24.66c-63.76,-8.91 -121.89,-32.47 -171.5,-66.72c-120.2,-83.1 -190.17,-229.35 -168.56,-383.9c30.53,-218.32 232.3,-370.59 450.62,-340.07c45.28,6.34 87.68,20.03 126.22,39.69c22.3,11.41 43.29,24.73 62.75,39.86c8.68,6.72 17.09,13.82 25.16,21.21c0,0 0,0 -0.01,0.05c93.63,85.71 144.85,214.61 125.95,349.82z" fill="#4C136D" id="svg_45"/>
    </g>
    <g id="svg_46" opacity="0.13">
     <path d="m2262.63,1773.4c-16.58,118.55 20.77,232.23 93.3,316.19c-94.38,-85.74 -146.12,-215.12 -127.13,-350.9c30.53,-218.32 232.3,-370.59 450.62,-340.07c83.11,11.63 156.6,48.06 214.13,100.76c0,0 0,0 -0.01,0.06c11.57,10.6 22.47,21.81 32.71,33.62c-57.38,-52.15 -130.4,-88.17 -213,-99.72c-218.32,-30.53 -420.09,121.74 -450.62,340.06z" fill="#4C136D" id="svg_47"/>
    </g>
    <g id="svg_48">
     <path d="m3130.41,1864.76c-39.09,279.58 -297.47,474.57 -577.06,435.48c-154.09,-21.55 -282.47,-109.68 -360.11,-231.31c78.74,99.69 194.43,170.27 330.15,189.24c279.64,39.11 537.97,-155.89 577.06,-435.47c17.55,-125.49 -12.07,-246.73 -75.36,-345.76c83.53,105.64 125.44,243.9 105.32,387.82z" fill="#F28D01" id="svg_49"/>
    </g>
    <g id="svg_50" opacity="0.6">
     <path d="m3108.05,1629.01c-67.81,-160.04 -215.54,-281.49 -400.18,-307.31c-279.64,-39.1 -537.97,155.89 -577.06,435.48c-11.46,81.97 -2.82,162.05 22.24,235.38c-34.78,-82.23 -48.43,-174.56 -35.17,-269.38c39.09,-279.59 297.47,-474.57 577.05,-435.48c197.5,27.62 352.79,164.68 413.12,341.31z" fill="#FFFFFF" id="svg_51"/>
    </g>
    <g id="svg_52">
     <path d="m2625.25,2322.49c-24.65,0 -49.44,-1.72 -74.28,-5.19c-288.57,-40.35 -490.51,-307.94 -450.16,-596.51c19.55,-139.78 92.36,-263.59 205.02,-348.61c112.67,-85.03 251.7,-121.07 391.49,-101.54c139.78,19.54 263.59,92.35 348.62,205.02c85.02,112.67 121.08,251.7 101.53,391.48s-92.35,263.6 -205.02,348.62c-92.65,69.92 -203.14,106.73 -317.2,106.73zm-2.14,-1022.57c-106.63,0 -209.91,34.4 -296.52,99.76c-105.31,79.48 -173.38,195.21 -191.65,325.88c-37.72,269.75 151.05,519.89 420.8,557.61c130.68,18.28 260.64,-15.43 365.95,-94.92c105.32,-79.47 173.38,-195.21 191.65,-325.88s-15.43,-260.63 -94.91,-365.95c-79.48,-105.32 -195.21,-173.38 -325.88,-191.65c-23.21,-3.25 -46.41,-4.85 -69.44,-4.85z" fill="#4C136D" id="svg_53"/>
    </g>
    <g id="svg_54">
     <path d="m2624.42,2207.55c-19,0 -38.2,-1.31 -57.54,-4.02c-225.84,-31.58 -383.88,-241 -352.3,-466.83c31.58,-225.83 241,-383.85 466.83,-352.3c109.4,15.3 206.29,72.28 272.83,160.46c66.54,88.17 94.76,196.98 79.47,306.37c-28.88,206.5 -206.45,356.32 -409.29,356.32zm-0.54,-798.44c-188.77,0 -353.99,139.4 -380.86,331.57c-29.39,210.15 117.68,405.03 327.83,434.42c17.99,2.51 35.88,3.73 53.55,3.73c188.77,0.02 354,-139.4 380.87,-331.57c29.38,-210.15 -117.68,-405.03 -327.84,-434.41c-17.98,-2.52 -35.88,-3.74 -53.55,-3.74z" fill="#4C136D" id="svg_55"/>
    </g>
    <g id="svg_56">
     <path d="m2476.99,1473.77l-82.3,-5.41c-0.7,14.21 -2.05,28.73 -4.05,43.02c-3.51,25.14 -9.13,50.72 -16.69,76.04l79.63,21.23c8.46,-28.51 14.84,-57.38 18.82,-85.83c2.28,-16.3 3.83,-32.82 4.59,-49.05z" fill="#4C136D" id="svg_57"/>
    </g>
    <g id="svg_58">
     <path d="m2323.72,1695.16c-23.32,33.48 -51.64,63.15 -84.29,88l54.47,57.04c38.77,-29.63 72.48,-64.78 100.08,-104.44l-70.26,-40.6z" fill="#4C136D" id="svg_59"/>
    </g>
    <g id="svg_60" opacity="0.3">
     <path d="m3019.49,1849.25c-30.53,218.32 -232.31,370.59 -450.63,340.06s-370.59,-232.3 -340.06,-450.62c0.31,-2.22 0.62,-4.44 0.98,-6.59c-16.71,195.78 122.54,372.53 319.41,400.06c203.59,28.47 391.74,-113.47 420.21,-317.12c27.84,-199.09 -107.37,-383.46 -303.77,-418.11c4.57,0.46 9.18,1.05 13.79,1.69c218.32,30.53 370.59,232.31 340.07,450.63z" fill="#4C136D" id="svg_61"/>
    </g>
    <g id="svg_62">
     <path d="m2817.56,2157.56c-4.2,0 -8.36,-1.83 -11.2,-5.36c-4.97,-6.19 -3.98,-15.22 2.2,-20.19c11.44,-9.19 17.98,-37.78 19.42,-53.64c0.02,-0.23 0.05,-0.48 0.08,-0.71l67.76,-484.64c4.75,-48.65 -14.78,-86.58 -14.98,-86.96c-3.68,-7.02 -0.97,-15.7 6.06,-19.38c7.02,-3.68 15.7,-0.97 19.38,6.05c0.98,1.86 23.78,46.16 18.1,103.41c-0.02,0.19 -0.05,0.38 -0.07,0.57l-67.76,484.59c-0.65,6.99 -5.87,53.71 -30,73.1c-2.65,2.13 -5.83,3.16 -8.99,3.16zm92.53,-562.84l0.04,0l-0.04,0z" fill="#4C136D" id="svg_63"/>
    </g>
    <defs transform="translate(10 -40) translate(210 300) translate(-124 -18) translate(-83 -280)">
     <filter filterUnits="userSpaceOnUse" height="463.3" id="Adobe_OpacityMaskFilter" width="532.42" x="2288.7" y="1517.4">
      <feFlood flood-color="white" flood-opacity="1" result="back"/>
      <feBlend in="SourceGraphic" in2="back"/>
     </filter>
    </defs>
    <mask height="463.3" id="SVGID_1_" maskUnits="userSpaceOnUse" width="532.42" x="2288.7" y="1517.4">
     <g filter="url(#Adobe_OpacityMaskFilter)" id="svg_64">
      <defs>
       <filter filterUnits="userSpaceOnUse" height="463.3" id="Adobe_OpacityMaskFilter_00000063591586804109028940000017085913305627248774_" width="532.42" x="2288.7" y="1517.4">
        <feFlood flood-color="white" flood-opacity="1" result="back"/>
        <feBlend in="SourceGraphic" in2="back"/>
       </filter>
      </defs>
      <mask height="463.3" id="svg_1" maskUnits="userSpaceOnUse" width="532.42" x="2288.7" y="1517.4">
       <g filter="url(#Adobe_OpacityMaskFilter_00000063591586804109028940000017085913305627248774_)" id="svg_65"/>
      </mask>
      <linearGradient id="SVGID_00000018923427850970775960000014074828149432563344_" x1="0.27" x2="0.75" y1="0.32" y2="0.71">
       <stop offset="0" stop-color="#FFFFFF"/>
       <stop offset="1" stop-color="#000000"/>
      </linearGradient>
      <path d="m2641.66,1871.71c-134.29,101.34 -264.8,149.86 -327.61,66.63c-62.81,-83.23 -4.87,-232.86 129.41,-334.19c134.28,-101.34 294.06,-116.02 356.87,-32.78c62.81,83.23 -24.39,199.01 -158.67,300.34z" fill="url(#SVGID_00000018923427850970775960000014074828149432563344_)" id="svg_66" mask="url(#SVGID_1_)"/>
     </g>
    </mask>
    <linearGradient id="SVGID_00000062189958010853137180000015988097196432660643_" x1="0.27" x2="0.75" y1="0.32" y2="0.71">
     <stop offset="0" stop-color="#FFFFFF"/>
     <stop offset="1" stop-color="#F1F2F2"/>
    </linearGradient>
    <path d="m2654.66,1833.71c-134.29,101.34 -264.8,149.86 -327.61,66.63c-62.81,-83.23 -4.87,-232.86 129.41,-334.19c134.28,-101.34 294.06,-116.02 356.87,-32.78c62.81,83.23 -24.39,199.01 -158.67,300.34z" fill="url(#SVGID_00000062189958010853137180000015988097196432660643_)" id="svg_67" opacity="0.6"/>
    <g id="svg_68" opacity="0.83">
     <ellipse cx="2506.37" cy="1727.95" fill="#FFFFFF" id="svg_69" rx="104.97" ry="64.62" transform="matrix(0.6637 -0.748 0.748 0.6637 -473.629 2433.53)"/>
    </g>
   </g>
   <g id="svg_70">
    <path d="m2356.96,2934.54c-0.98,0 -1.97,-0.09 -2.97,-0.26c-54.86,-9.52 -102.91,-41.06 -135.29,-88.81c-30.8,-45.43 -61.93,-126.21 -35.29,-253.07c1.87,-8.86 10.3,-14.77 19.25,-13.52l230.54,32.23c44.5,-0.61 73.96,-26.87 78.92,-70.45c7.55,-66.35 -43.9,-148.86 -143.07,-172.44l-1250.66,-174.87c-9.42,-1.32 -15.99,-10.02 -14.68,-19.45c1.32,-9.43 10.06,-15.98 19.46,-14.68l1251.44,174.98c0.52,0.08 1.04,0.18 1.55,0.29c122.8,28.76 179.35,129.69 170.21,210.07c-7.07,62.09 -50.84,100.81 -114.23,101.03c-0.77,0.06 -1.63,-0.05 -2.44,-0.17l-215.59,-30.15c-14.46,83.38 -2.88,157.78 33.11,210.85c27.09,39.94 67.1,66.29 112.67,74.21c9.37,1.63 15.65,10.55 14.02,19.93c-1.45,8.38 -8.73,14.28 -16.95,14.28z" fill="#4C136D" id="svg_71"/>
   </g>
   <g id="svg_72">
    <path d="m2183.46,2592.2c9.5,-34.91 24.63,-68.47 46.72,-97.13c21.84,-28.59 50.29,-52.9 84.16,-66.14c16.85,-6.48 35.03,-10.35 53.22,-9.2c18.11,1.02 36.03,6.51 50.88,16.48c14.88,9.94 26.7,23.52 35.47,38.45c8.82,14.96 14.79,31.24 19.08,47.77c-5.66,-16.13 -12.94,-31.68 -22.69,-45.43c-9.7,-13.72 -21.99,-25.5 -36.31,-33.42c-14.33,-7.93 -30.61,-11.35 -46.59,-10.93c-16.06,0.32 -31.79,5.11 -46.21,12.09c-28.96,14.23 -52.56,38.06 -69.86,65.18c-17.54,27.17 -28.42,58.19 -34.23,89.76l-0.04,0.18c-1.72,9.37 -10.72,15.56 -20.09,13.83s-15.56,-10.72 -13.83,-20.08c0.08,-0.47 0.2,-0.96 0.32,-1.41z" fill="#4C136D" id="svg_73"/>
   </g>
   <g id="svg_74" opacity="0.3">
    <path d="m2200.28,2595.94c39.07,-175.77 223.96,-239.23 272.71,-73.51c0,0 23.06,83.94 -43.64,97.81c-66.7,13.87 -229.07,-24.3 -229.07,-24.3z" fill="#4C136D" id="svg_75"/>
   </g>
   <g id="svg_76">
    <path d="m1684.28,1070.02l64.13,-42.49c6,-3.98 7.64,-12.07 3.67,-18.07l-34.25,-51.68c-3.97,-6 -12.06,-7.65 -18.07,-3.67l-73.17,48.49l-57.07,-66.7c-4.68,-5.47 -12.91,-6.11 -18.38,-1.43l-47.11,40.3c-5.47,4.68 -6.11,12.91 -1.43,18.39l50.02,58.45l-64.13,42.5c-6.01,3.98 -7.65,12.07 -3.67,18.07l34.24,51.68c3.98,6 12.07,7.64 18.07,3.67l73.18,-48.49l57.07,66.7c4.68,5.47 12.91,6.11 18.38,1.43l47.11,-40.31c5.47,-4.68 6.11,-12.91 1.43,-18.38l-50.02,-58.46z" fill="#CE2828" id="svg_77"/>
   </g>
   <g id="svg_78">
    <path d="m1872.51,2256.89l-13.11,19.91c0,0 -15.09,8.39 -18.08,6.17c-0.84,-0.64 -3.48,-1.7 -6.84,-2.93c-8.28,-3.01 -20.8,-6.85 -20.8,-6.85l-34.24,-4.79c-2.11,-2.32 -4.08,-4.8 -6.04,-7.39c-1.38,-1.76 -2.69,-3.57 -4.01,-5.38l51.48,-36.7c9.2,12.94 19.96,23.14 32.06,30.35c0,0 7.77,4.1 19.58,7.61z" fill="#4C136D" id="svg_79"/>
   </g>
   <g id="svg_80" opacity="0.3">
    <path d="m2292.49,2908.27c0,0 -0.07,0.05 -0.2,0.21l-1484.56,-207.58c-94.37,-13.2 -141.54,-102.26 -150,-205.58c0.06,0.01 0.06,0.01 0.06,0.01c119.32,233.3 1135.34,311.86 1548.08,-16.97c-83.14,119.67 -72.55,369.55 51.34,386.88l35.28,43.03z" fill="#4C136D" id="svg_81"/>
   </g>
   <g id="svg_82" opacity="0.25">
    <path d="m1581.86,2445.84c-10.11,72.26 -170.47,109.56 -358.18,83.31c-187.71,-26.24 -331.69,-106.1 -321.59,-178.35c10.11,-72.26 134.96,-73.4 322.68,-47.16c187.71,26.25 367.19,69.95 357.09,142.2z" fill="#FFFFFF" id="svg_83"/>
   </g>
  </g>
 </g>
</svg>